<svg width="20.000000" height="20.000000" viewBox="0 0 20 20" fill="none" xmlns="http://www.w3.org/2000/svg" xmlns:xlink="http://www.w3.org/1999/xlink">
	<desc>
			Created with Pixso.
	</desc>
	<defs>
		<clipPath id="clip150_308">
			<rect id="Icon / Empty Cart" width="20.000000" height="20.000000" fill="white" fill-opacity="0"/>
		</clipPath>
	</defs>
	<g clip-path="url(#clip150_308)">
		<path id="Vector" d="M19.56 4.87C19.18 4.41 18.59 4.12 17.98 4.12L5.15 4.12L4.75 2.63C4.52 1.77 3.72 1.16 2.8 1.16L0.65 1.16C0.29 1.16 0 1.45 0 1.79C0 2.13 0.29 2.41 0.65 2.41L2.8 2.41C3.11 2.41 3.39 2.61 3.47 2.92L6.04 12.7C6.27 13.57 7.07 14.17 8 14.17L16.4 14.17C17.32 14.17 18.15 13.57 18.36 12.7L19.94 6.5C20.08 5.94 19.96 5.33 19.56 4.87L19.56 4.87ZM18.65 6.22L17.07 12.42C16.99 12.72 16.71 12.92 16.4 12.92L8 12.92C7.68 12.92 7.41 12.72 7.32 12.42L5.49 5.39L17.98 5.39C18.19 5.39 18.4 5.49 18.53 5.65C18.65 5.81 18.71 6.02 18.65 6.22L18.65 6.22Z" fill-opacity="1.000000" fill-rule="nonzero"/>
		<path id="Vector" d="M8.44 14.98C7.24 14.98 6.25 15.92 6.25 17.07C6.25 18.22 7.24 19.16 8.44 19.16C9.64 19.16 10.63 18.22 10.63 17.07C10.63 15.92 9.64 14.98 8.44 14.98L8.44 14.98ZM8.44 17.9C7.95 17.9 7.58 17.53 7.58 17.07C7.58 16.61 7.95 16.24 8.44 16.24C8.92 16.24 9.3 16.61 9.3 17.07C9.3 17.51 8.9 17.9 8.44 17.9Z" fill-opacity="1.000000" fill-rule="nonzero"/>
		<path id="Vector" d="M15.68 14.98C14.48 14.98 13.49 15.92 13.49 17.07C13.49 18.22 14.48 19.16 15.68 19.16C16.88 19.16 17.87 18.22 17.87 17.07C17.85 15.92 16.88 14.98 15.68 14.98ZM15.68 17.9C15.2 17.9 14.82 17.53 14.82 17.07C14.82 16.61 15.2 16.24 15.68 16.24C16.17 16.24 16.55 16.61 16.55 17.07C16.55 17.51 16.15 17.9 15.68 17.9Z" fill-opacity="1.000000" fill-rule="nonzero"/>
	</g>
</svg>
