<svg width="41.000000" height="41.000000" viewBox="0 0 41 41" fill="none" xmlns="http://www.w3.org/2000/svg" xmlns:xlink="http://www.w3.org/1999/xlink">
	<desc>
			Created with Pixso.
	</desc>
	<defs>
		<clipPath id="clip150_361">
			<rect id="VSF" width="31.159998" height="30.175997" transform="translate(4.919922 5.412109)" fill="white" fill-opacity="0"/>
		</clipPath>
		<linearGradient x1="29.873306" y1="31.333424" x2="9.677773" y2="11.472877" id="paint_linear_150_365_0" gradientUnits="userSpaceOnUse">
			<stop stop-color="#52D67A"/>
			<stop offset="1.000000" stop-color="#5AEE87"/>
		</linearGradient>
	</defs>
	<rect id="a-logo" width="41.000000" height="41.000000" fill="#FFFFFF" fill-opacity="0"/>
	<rect id="Brand icon" width="41.000000" height="41.000000" fill="#FFFFFF" fill-opacity="0"/>
	<rect id="VSF" width="31.159998" height="30.175997" transform="translate(4.919922 5.412109)" fill="#FFFFFF" fill-opacity="0"/>
	<g clip-path="url(#clip150_361)">
		<path id="svg 2" d="M34.02 28.66C34.04 28.98 33.8 29.25 33.48 29.25L7.46 29.25C7.15 29.25 6.9 28.98 6.93 28.66L8.79 5.91C8.81 5.62 9.05 5.41 9.33 5.41L31.54 5.41C31.82 5.41 32.05 5.62 32.08 5.91L34.02 28.66Z" fill="#1DCF65" fill-opacity="1.000000" fill-rule="nonzero"/>
		<path id="svg 3" d="M36.09 34.6C36.13 34.99 35.82 35.33 35.42 35.33L5.59 35.33C5.2 35.33 4.89 35 4.92 34.6L7.06 7.34C7.09 6.99 7.38 6.71 7.73 6.71L33.19 6.71C33.54 6.71 33.83 6.99 33.86 7.34L36.09 34.6Z" fill="url(#paint_linear_150_365_0)" fill-opacity="1.000000" fill-rule="nonzero"/>
		<path id="svg 19" d="M19.92 26.69C16.04 26.69 12.88 22.86 12.88 18.15C12.88 17.9 13.07 17.7 13.32 17.7C13.56 17.7 13.76 17.9 13.76 18.15C13.76 22.37 16.52 25.8 19.92 25.8C23.32 25.8 26.08 22.37 26.08 18.15C26.08 17.9 26.28 17.7 26.52 17.7C26.76 17.7 26.96 17.9 26.96 18.15C26.96 22.86 23.8 26.69 19.92 26.69Z" fill="#FFFFFF" fill-opacity="1.000000" fill-rule="nonzero"/>
		<path id="svg 21" d="M24.25 18.03C24.14 18.03 24.03 17.99 23.94 17.9C23.77 17.73 23.77 17.44 23.94 17.27L26.22 14.97C26.3 14.88 26.42 14.84 26.53 14.84C26.65 14.84 26.76 14.88 26.84 14.97L29.1 17.25C29.27 17.42 29.27 17.7 29.1 17.88C28.93 18.05 28.65 18.05 28.48 17.88L26.53 15.91L24.56 17.9C24.48 17.99 24.37 18.03 24.25 18.03Z" fill="#FFFFFF" fill-opacity="1.000000" fill-rule="nonzero"/>
	</g>
</svg>
